<svg width="224" height="310" viewBox="0 0 224 310" fill="none" xmlns="http://www.w3.org/2000/svg">
<g filter="url(#filter0_i_112_484)">
<path d="M137.5 51H161.5C175.583 51 187 39.5833 187 25.5C187 11.4167 175.583 0 161.5 0H99.5C85.4167 0 74 11.4167 74 25.5C74 39.5833 85.4167 51 99.5 51H49.5C28.7893 51 12 67.7893 12 88.5C12 109.211 28.7893 126 49.5 126H80C56.2518 126 37 145.252 37 169C37 192.748 56.2517 212 80 212H49C21.938 212 0 233.938 0 261C0 288.062 21.938 310 49 310H164C191.062 310 213 288.062 213 261C213 233.938 191.062 212 164 212H181C204.748 212 224 192.748 224 169C224 145.252 204.748 126 181 126H137.5C158.211 126 175 109.211 175 88.5C175 67.7893 158.211 51 137.5 51Z" fill="url(#paint0_linear_112_484)"/>
</g>
<defs>
<filter id="filter0_i_112_484" x="0" y="0" width="224" height="315" filterUnits="userSpaceOnUse" color-interpolation-filters="sRGB">
<feFlood flood-opacity="0" result="BackgroundImageFix"/>
<feBlend mode="normal" in="SourceGraphic" in2="BackgroundImageFix" result="shape"/>
<feColorMatrix in="SourceAlpha" type="matrix" values="0 0 0 0 0 0 0 0 0 0 0 0 0 0 0 0 0 0 127 0" result="hardAlpha"/>
<feOffset dy="5"/>
<feGaussianBlur stdDeviation="6.6"/>
<feComposite in2="hardAlpha" operator="arithmetic" k2="-1" k3="1"/>
<feColorMatrix type="matrix" values="0 0 0 0 1 0 0 0 0 1 0 0 0 0 1 0 0 0 0.7 0"/>
<feBlend mode="normal" in2="shape" result="effect1_innerShadow_112_484"/>
</filter>
<linearGradient id="paint0_linear_112_484" x1="112" y1="0" x2="112" y2="315" gradientUnits="userSpaceOnUse">
<stop stop-color="white"/>
<stop offset="1" stop-color="white" stop-opacity="0"/>
</linearGradient>
</defs>
</svg>
