<svg width="299" height="197" viewBox="0 0 299 197" fill="none" xmlns="http://www.w3.org/2000/svg">
<g filter="url(#filter0_i_112_516)">
<path d="M54.2138 133.634C70.3843 150.264 87.7286 161.796 106.722 169.208L99.9665 197H130.468H170.731H201.233L194.477 169.208C213.47 161.796 226.639 157.131 242.809 140.5C258.461 124.403 267.502 96.1664 272.66 73.5128C277.56 51.9877 282.724 29.3039 297.657 8.88408C300.228 5.36783 297.915 1.83756e-05 293.637 1.79061e-05L170.731 0H130.468L3.07653 1.8174e-05C0.466756 1.85463e-05 -0.933019 3.14059 0.700608 5.17583C17.8442 26.534 23.3403 50.6756 28.5394 73.5128C33.6967 96.1664 38.5619 117.537 54.2138 133.634Z" fill="url(#paint0_linear_112_516)"/>
</g>
<defs>
<filter id="filter0_i_112_516" x="0" y="0" width="305.733" height="201" filterUnits="userSpaceOnUse" color-interpolation-filters="sRGB">
<feFlood flood-opacity="0" result="BackgroundImageFix"/>
<feBlend mode="normal" in="SourceGraphic" in2="BackgroundImageFix" result="shape"/>
<feColorMatrix in="SourceAlpha" type="matrix" values="0 0 0 0 0 0 0 0 0 0 0 0 0 0 0 0 0 0 127 0" result="hardAlpha"/>
<feOffset dx="7" dy="4"/>
<feGaussianBlur stdDeviation="4.4"/>
<feComposite in2="hardAlpha" operator="arithmetic" k2="-1" k3="1"/>
<feColorMatrix type="matrix" values="0 0 0 0 1 0 0 0 0 1 0 0 0 0 1 0 0 0 0.7 0"/>
<feBlend mode="normal" in2="shape" result="effect1_innerShadow_112_516"/>
</filter>
<linearGradient id="paint0_linear_112_516" x1="147.496" y1="0" x2="147.496" y2="200.177" gradientUnits="userSpaceOnUse">
<stop stop-color="white"/>
<stop offset="1" stop-color="white" stop-opacity="0"/>
</linearGradient>
</defs>
</svg>
