<svg width="299" height="197" viewBox="0 0 299 197" fill="none" xmlns="http://www.w3.org/2000/svg">
<path d="M54.2138 133.634C70.3843 150.264 87.7286 161.796 106.722 169.208L99.9665 197H130.468H170.731H201.233L194.477 169.208C213.47 161.796 226.639 157.131 242.809 140.5C258.461 124.403 267.502 96.1664 272.66 73.5128C277.56 51.9877 282.724 29.3039 297.657 8.88408C300.228 5.36783 297.915 1.83756e-05 293.637 1.79061e-05L170.731 0H130.468L3.07653 1.8174e-05C0.466756 1.85463e-05 -0.933019 3.14059 0.700608 5.17583C17.8442 26.534 23.3403 50.6756 28.5394 73.5128C33.6967 96.1664 38.5619 117.537 54.2138 133.634Z" fill="#000"/>
</svg>
