<svg xmlns="http://www.w3.org/2000/svg" width="197" height="350" viewBox="0 0 197 350" fill="none"><g transform="translate(0,0)">
<g filter="url(#pb_filter0_i_112_528)">
<path d="M82.1954 15.1243C81.6309 16.9791 81.2374 18.9171 81.0212 20.894C43.8159 28.7898 15.152 60.5181 12.3971 99.884L3.72079 223.86L0.58947 232.641C-1.73274 239.153 3.09507 246 10.0084 246H187.821C194.684 246 199.507 239.245 197.279 232.754L194.227 223.86L185.897 100.115C183.226 60.4263 154.213 28.4409 116.614 20.7599C116.395 18.8295 116.007 16.9372 115.455 15.1243C114.55 12.1518 113.225 9.45092 111.553 7.17588C109.882 4.90085 107.897 3.09619 105.714 1.86495C103.53 0.633712 101.189 0 98.8252 0C96.4614 0 94.1208 0.633712 91.9369 1.86495C89.753 3.09619 87.7687 4.90085 86.0973 7.17589C84.4258 9.45092 83.1 12.1518 82.1954 15.1243Z" fill="url(#pb_paint0_linear_112_528)"/>
</g>
<defs>
<filter id="pb_filter0_i_112_528" x="0" y="0" width="204.829" height="250" filterUnits="userSpaceOnUse" color-interpolation-filters="sRGB">
<feFlood flood-opacity="0" result="BackgroundImageFix"/>
<feBlend mode="normal" in="SourceGraphic" in2="BackgroundImageFix" result="shape"/>
<feColorMatrix in="SourceAlpha" type="matrix" values="0 0 0 0 0 0 0 0 0 0 0 0 0 0 0 0 0 0 127 0" result="hardAlpha"/>
<feOffset dx="7" dy="4"/>
<feGaussianBlur stdDeviation="4.4"/>
<feComposite in2="hardAlpha" operator="arithmetic" k2="-1" k3="1"/>
<feColorMatrix type="matrix" values="0 0 0 0 1 0 0 0 0 1 0 0 0 0 1 0 0 0 0.7 0"/>
<feBlend mode="normal" in2="shape" result="effect1_innerShadow_112_528"/>
</filter>
<linearGradient id="pb_paint0_linear_112_528" x1="98.8252" y1="19" x2="98.8252" y2="249.661" gradientUnits="userSpaceOnUse">
<stop stop-color="white"/>
<stop offset="1" stop-color="white" stop-opacity="0"/>
</linearGradient>
</defs>
</g><g transform="translate(22,46)">
<g filter="url(#pa_filter0_i_112_527)">
<path d="M72.3252 -9.06129e-06V248.339C67.1277 249.597 62.1278 251.13 57.2272 252.633C38.5267 258.367 21.2712 263.659 0 251.525L13 272.648L0 291.641C20.0829 284.311 33.7778 285.232 49.0834 291.641C56.0459 294.556 63.3416 297.611 71.7236 299.639C103.191 307.273 135.467 308.391 154 277.046C142.213 247.495 113.273 242.773 84.9219 246.039C83.7104 246.178 82.5118 246.342 81.3252 246.527V-9.06129e-06H72.3252Z" fill="url(#pa_paint0_linear_112_527)"/>
</g>
<defs>
<filter id="pa_filter0_i_112_527" x="-1" y="-2" width="155" height="306.148" filterUnits="userSpaceOnUse" color-interpolation-filters="sRGB">
<feFlood flood-opacity="0" result="BackgroundImageFix"/>
<feBlend mode="normal" in="SourceGraphic" in2="BackgroundImageFix" result="shape"/>
<feColorMatrix in="SourceAlpha" type="matrix" values="0 0 0 0 0 0 0 0 0 0 0 0 0 0 0 0 0 0 127 0" result="hardAlpha"/>
<feOffset dx="-1" dy="-2"/>
<feGaussianBlur stdDeviation="4.4"/>
<feComposite in2="hardAlpha" operator="arithmetic" k2="-1" k3="1"/>
<feColorMatrix type="matrix" values="0 0 0 0 1 0 0 0 0 1 0 0 0 0 1 0 0 0 0.7 0"/>
<feBlend mode="normal" in2="shape" result="effect1_innerShadow_112_527"/>
</filter>
<linearGradient id="pa_paint0_linear_112_527" x1="76.9306" y1="306.872" x2="76.9306" y2="135.282" gradientUnits="userSpaceOnUse">
<stop stop-color="white" stop-opacity="0.32"/>
<stop offset="1" stop-color="white" stop-opacity="0"/>
</linearGradient>
</defs>
</g></svg>