<svg width="142" height="806" viewBox="0 0 142 806" fill="none" xmlns="http://www.w3.org/2000/svg">
<path opacity="0.6" d="M-3.60824e-05 805.258L137.522 4.23446e-06L141.703 95.2228L25.0039 806L-3.60824e-05 805.258Z" fill="#B1D6CA"/>
<path d="M80.6181 468.01C70.34 470.859 61.2035 469.074 58.0517 465.989C56.6607 467.884 55.5025 472.006 67.5054 472.961C79.5083 473.917 80.9602 471.152 80.6181 468.01Z" fill="#ADD2C6"/>
<path d="M59.2581 595.245C48.98 598.094 39.8435 596.309 36.6917 593.224C35.3006 595.119 34.1425 599.241 46.1453 600.197C58.1482 601.152 59.6001 598.387 59.2581 595.245Z" fill="#ADD2C6"/>
<path d="M99.1843 359.177C88.9062 362.026 79.7697 360.241 76.6179 357.156C75.2269 359.051 74.0687 363.173 86.0716 364.128C98.0745 365.084 99.5263 362.319 99.1843 359.177Z" fill="#ADD2C6"/>
<path d="M114.566 263.674C104.611 266.532 95.7657 264.756 92.7167 261.674C91.368 263.571 90.2426 267.693 101.864 268.638C113.486 269.582 114.894 266.815 114.566 263.674Z" fill="#ADD2C6"/>
</svg>
