<svg width="142" height="806" viewBox="0 0 142 806" fill="none" xmlns="http://www.w3.org/2000/svg">
<path opacity="0.6" d="M141.703 805.258L4.18053 -0.000117909L-2.69872e-05 95.2227L116.699 806L141.703 805.258Z" fill="#B1D6CA"/>
<path d="M61.0847 468.01C71.3628 470.859 80.4993 469.074 83.6511 465.989C85.0421 467.884 86.2003 472.006 74.1974 472.961C62.1945 473.917 60.7426 471.152 61.0847 468.01Z" fill="#ADD2C6"/>
<path d="M82.4447 595.245C92.7228 598.094 101.859 596.309 105.011 593.224C106.402 595.119 107.56 599.241 95.5575 600.196C83.5546 601.152 82.1027 598.387 82.4447 595.245Z" fill="#ADD2C6"/>
<path d="M42.5185 359.177C52.7966 362.025 61.9331 360.241 65.0849 357.156C66.4759 359.051 67.6341 363.173 55.6312 364.128C43.6283 365.084 42.1765 362.319 42.5185 359.177Z" fill="#ADD2C6"/>
<path d="M27.1368 263.674C37.0918 266.532 45.9371 264.756 48.9861 261.674C50.3348 263.571 51.4602 267.693 39.8386 268.637C28.217 269.582 26.8086 266.815 27.1368 263.674Z" fill="#ADD2C6"/>
</svg>
