<svg width="121" height="809" viewBox="0 0 121 809" fill="none" xmlns="http://www.w3.org/2000/svg">
<path opacity="0.6" d="M0 809L113.57 0L120.575 95.0588L25.0155 809H0Z" fill="#B1D6CA"/>
<path d="M70.5772 469.502C60.388 472.654 51.2023 471.141 47.9603 468.152C46.6261 470.087 45.5907 474.241 57.6169 474.84C69.6431 475.44 71.0123 472.632 70.5772 469.502Z" fill="#ADD2C6"/>
<path d="M53.0015 597.318C42.8123 600.47 33.6266 598.957 30.3847 595.967C29.0504 597.903 28.015 602.057 40.0412 602.656C52.0674 603.255 53.4366 600.448 53.0015 597.318Z" fill="#ADD2C6"/>
<path d="M85.9062 360.164C75.7169 363.316 66.5313 361.803 63.2893 358.813C61.955 360.749 60.9196 364.903 72.9458 365.502C84.9721 366.101 86.3413 363.294 85.9062 360.164Z" fill="#ADD2C6"/>
<path d="M98.4476 264.245C88.5815 267.397 79.6873 265.884 76.5481 262.894C75.2562 264.829 74.2537 268.983 85.8984 269.583C97.5431 270.182 98.8689 267.375 98.4476 264.245Z" fill="#ADD2C6"/>
</svg>
